<svg id="svg" version="1.1" width="400" height="395.9183673469388" viewBox="0 0 400 395.9183673469388" xmlns="http://www.w3.org/2000/svg" xmlns:xlink="http://www.w3.org/1999/xlink" ><g id="svgg"><path id="path0" d="M191.881 1.003 C 186.868 1.946,182.052 3.567,177.228 5.934 C 172.124 8.439,171.966 8.557,153.861 23.362 C 148.416 27.816,141.644 33.322,138.812 35.598 C 135.980 37.874,132.149 41.009,130.297 42.564 C 128.446 44.120,124.347 47.473,121.188 50.016 C 115.157 54.872,106.483 61.925,93.016 72.924 C 70.456 91.350,65.794 95.145,59.406 100.284 C 55.594 103.350,51.406 106.780,50.099 107.906 C 48.792 109.032,45.406 111.794,42.574 114.044 C 39.743 116.294,36.356 119.055,35.050 120.179 C 33.743 121.303,29.465 124.788,25.545 127.923 C 13.845 137.276,9.617 141.910,5.799 149.567 C -9.881 181.006,9.083 215.870,44.554 220.816 C 56.706 222.510,71.423 217.780,82.125 208.741 C 84.115 207.061,88.416 203.527,91.683 200.888 C 99.543 194.540,109.018 186.825,123.172 175.248 C 129.563 170.020,137.325 163.693,140.422 161.188 C 151.304 152.385,157.797 147.091,162.539 143.155 C 165.172 140.969,168.663 138.129,170.297 136.844 C 171.931 135.559,175.673 132.528,178.614 130.109 C 192.472 118.710,199.191 113.267,199.406 113.267 C 199.621 113.267,206.340 118.710,220.198 130.109 C 223.139 132.528,226.881 135.559,228.515 136.844 C 230.149 138.129,233.640 140.969,236.273 143.155 C 241.092 147.154,246.970 151.950,259.590 162.178 C 263.353 165.228,271.125 171.554,276.862 176.238 C 282.599 180.921,290.419 187.304,294.240 190.422 C 298.062 193.540,304.720 198.976,309.036 202.501 C 321.306 212.523,322.272 213.265,325.379 215.042 C 364.647 237.509,411.708 200.191,397.289 158.020 C 392.894 145.166,389.549 141.079,371.392 126.377 C 353.815 112.145,350.547 109.482,348.515 107.733 C 347.317 106.701,343.663 103.708,340.396 101.081 C 334.429 96.283,324.063 87.842,306.968 73.861 C 295.853 64.772,286.002 56.754,276.756 49.271 C 272.963 46.202,268.162 42.282,266.087 40.559 C 264.012 38.835,258.674 34.465,254.226 30.846 C 249.778 27.226,242.584 21.364,238.239 17.817 C 228.110 9.549,226.552 8.416,222.314 6.242 C 212.453 1.181,201.218 -0.753,191.881 1.003 M193.891 174.161 C 193.793 174.259,192.321 174.581,190.619 174.877 C 180.191 176.687,174.951 179.603,159.713 192.079 C 155.589 195.455,147.626 201.960,142.017 206.535 C 136.408 211.109,128.491 217.569,124.424 220.890 C 120.357 224.211,113.644 229.678,109.505 233.038 C 101.625 239.436,94.971 244.862,77.658 259.010 C 60.269 273.219,45.052 285.604,28.767 298.801 C 24.876 301.955,19.829 306.159,17.551 308.145 C -11.257 333.262,-2.483 379.382,33.465 391.790 C 41.732 394.643,51.934 395.499,58.416 393.883 C 58.851 393.775,59.933 393.509,60.820 393.293 C 68.434 391.435,76.281 387.335,82.589 381.918 C 84.106 380.616,87.752 377.613,90.693 375.247 C 93.634 372.880,98.356 369.036,101.188 366.704 C 104.020 364.372,111.416 358.333,117.624 353.283 C 123.832 348.233,131.941 341.627,135.644 338.602 C 139.347 335.577,143.662 332.070,145.234 330.808 C 146.805 329.547,152.127 325.218,157.059 321.188 C 161.991 317.158,169.202 311.277,173.083 308.119 C 176.964 304.960,184.383 298.916,189.569 294.686 C 194.755 290.457,199.187 286.997,199.416 286.997 C 199.646 286.997,204.075 290.457,209.259 294.686 C 214.443 298.916,221.921 305.016,225.877 308.243 C 229.833 311.470,236.099 316.545,239.802 319.522 C 243.505 322.498,247.782 326.019,249.307 327.345 C 250.832 328.672,253.397 330.775,255.008 332.020 C 256.618 333.264,260.628 336.491,263.919 339.189 C 270.104 344.263,282.305 354.220,299.802 368.475 C 305.356 373.000,312.044 378.477,314.663 380.646 C 327.965 391.661,337.102 395.432,350.495 395.432 C 392.188 395.432,414.562 347.578,388.206 314.778 C 386.258 312.354,379.054 306.040,368.911 297.869 C 361.849 292.180,357.118 288.334,349.109 281.772 C 343.051 276.809,321.001 258.831,310.327 250.152 C 307.076 247.509,302.265 243.562,299.634 241.381 C 297.004 239.200,291.766 234.923,287.995 231.876 C 277.820 223.656,268.213 215.848,256.817 206.535 C 243.614 195.744,233.879 187.815,229.827 184.550 C 224.048 179.894,215.841 176.240,207.957 174.811 C 204.810 174.241,194.297 173.755,193.891 174.161 " stroke="none" fill="#000000" fill-rule="evenodd"></path><path id="path1" d="M186.337 1.980 C 185.327 2.414,186.369 2.414,187.723 1.980 C 188.519 1.725,188.558 1.661,187.921 1.651 C 187.485 1.645,186.772 1.793,186.337 1.980 M213.465 2.460 C 213.574 2.567,214.283 2.864,215.040 3.120 C 215.798 3.376,216.243 3.415,216.031 3.207 C 215.818 2.999,215.109 2.702,214.455 2.547 C 213.802 2.392,213.356 2.353,213.465 2.460 M381.782 134.777 C 381.782 134.846,382.361 135.425,383.069 136.065 L 384.356 137.228 383.193 135.941 C 382.109 134.741,381.782 134.471,381.782 134.777 M14.653 136.832 C 13.691 137.812,12.993 138.614,13.102 138.614 C 13.211 138.614,14.088 137.812,15.050 136.832 C 16.011 135.851,16.709 135.050,16.601 135.050 C 16.492 135.050,15.615 135.851,14.653 136.832 M395.276 152.673 C 395.276 152.891,395.530 153.515,395.842 154.059 C 396.153 154.604,396.408 154.871,396.408 154.653 C 396.408 154.436,396.153 153.812,395.842 153.267 C 395.530 152.723,395.276 152.455,395.276 152.673 M399.704 172.871 C 399.708 173.743,399.789 174.052,399.884 173.560 C 399.979 173.067,399.975 172.354,399.876 171.976 C 399.777 171.597,399.699 172.000,399.704 172.871 M195.347 174.134 C 195.728 174.234,196.351 174.234,196.733 174.134 C 197.114 174.035,196.802 173.953,196.040 173.953 C 195.277 173.953,194.965 174.035,195.347 174.134 M202.481 174.146 C 203.083 174.237,203.974 174.234,204.461 174.140 C 204.948 174.046,204.455 173.972,203.366 173.975 C 202.277 173.978,201.879 174.055,202.481 174.146 M191.386 174.530 C 191.767 174.630,192.391 174.630,192.772 174.530 C 193.153 174.431,192.842 174.349,192.079 174.349 C 191.317 174.349,191.005 174.431,191.386 174.530 M206.040 174.530 C 206.421 174.630,207.045 174.630,207.426 174.530 C 207.807 174.431,207.495 174.349,206.733 174.349 C 205.970 174.349,205.658 174.431,206.040 174.530 M208.350 174.795 C 208.441 174.872,209.139 175.050,209.901 175.190 C 210.876 175.369,211.111 175.329,210.693 175.055 C 210.156 174.703,207.957 174.459,208.350 174.795 M395.708 191.898 C 395.044 193.355,395.171 193.665,395.888 192.341 C 396.223 191.723,396.424 191.143,396.333 191.052 C 396.242 190.962,395.961 191.342,395.708 191.898 M14.851 207.129 C 16.145 208.436,17.292 209.505,17.401 209.505 C 17.510 209.505,16.541 208.436,15.248 207.129 C 13.954 205.822,12.807 204.752,12.698 204.752 C 12.589 204.752,13.558 205.822,14.851 207.129 M59.406 220.030 L 57.228 220.564 59.208 220.344 C 60.297 220.222,61.455 219.967,61.782 219.776 C 62.556 219.325,62.059 219.378,59.406 220.030 M39.010 220.180 C 39.770 220.524,41.891 220.749,41.551 220.449 C 41.460 220.369,40.673 220.195,39.802 220.062 C 38.698 219.894,38.458 219.929,39.010 220.180 M336.469 220.181 C 336.669 220.374,337.545 220.636,338.416 220.762 C 340.210 221.022,339.935 220.831,337.657 220.235 C 336.805 220.012,336.270 219.988,336.469 220.181 M42.678 220.874 C 43.171 220.969,43.883 220.965,44.262 220.866 C 44.641 220.767,44.238 220.690,43.366 220.694 C 42.495 220.698,42.185 220.779,42.678 220.874 M54.955 220.874 C 55.448 220.969,56.161 220.965,56.539 220.866 C 56.918 220.767,56.515 220.690,55.644 220.694 C 54.772 220.698,54.462 220.779,54.955 220.874 M48.209 221.276 C 48.912 221.363,50.160 221.365,50.981 221.279 C 51.803 221.193,51.228 221.122,49.703 221.120 C 48.178 221.118,47.506 221.188,48.209 221.276 M382.574 309.035 C 382.574 309.103,383.153 309.682,383.861 310.322 L 385.149 311.485 383.985 310.198 C 382.901 308.998,382.574 308.729,382.574 309.035 M399.704 346.337 C 399.708 347.208,399.789 347.518,399.884 347.025 C 399.979 346.532,399.975 345.820,399.876 345.441 C 399.777 345.062,399.699 345.465,399.704 346.337 M15.050 380.718 C 15.050 380.786,15.629 381.365,16.337 382.005 L 17.624 383.168 16.461 381.881 C 15.376 380.681,15.050 380.412,15.050 380.718 M33.905 392.260 C 34.583 392.573,35.652 392.930,36.281 393.054 C 37.261 393.247,37.226 393.201,36.040 392.736 C 33.901 391.897,32.389 391.560,33.905 392.260 M332.673 392.408 C 333.000 392.610,333.713 392.895,334.257 393.040 C 334.946 393.224,335.066 393.193,334.653 392.938 C 334.327 392.736,333.614 392.452,333.069 392.306 C 332.381 392.122,332.260 392.153,332.673 392.408 " stroke="none" fill="#303030" fill-rule="evenodd"></path><path id="path2" d="M198.520 0.284 C 199.122 0.375,200.013 0.373,200.500 0.279 C 200.988 0.185,200.495 0.110,199.406 0.113 C 198.317 0.116,197.918 0.193,198.520 0.284 M215.842 2.984 C 215.842 3.260,218.719 4.387,219.100 4.260 C 219.290 4.197,218.634 3.845,217.643 3.478 C 216.652 3.111,215.842 2.888,215.842 2.984 M219.802 4.538 C 219.802 4.647,220.515 5.100,221.386 5.545 C 222.257 5.989,222.970 6.264,222.970 6.155 C 222.970 6.046,222.257 5.593,221.386 5.149 C 220.515 4.704,219.802 4.429,219.802 4.538 M176.166 5.755 C 175.146 6.286,174.187 6.923,174.034 7.170 C 173.772 7.594,177.190 5.795,178.000 5.083 C 178.598 4.557,178.152 4.721,176.166 5.755 M237.315 16.845 C 237.907 17.468,238.463 17.898,238.550 17.801 C 238.636 17.703,238.152 17.194,237.473 16.668 L 236.238 15.712 237.315 16.845 M239.428 18.649 C 239.750 19.171,241.189 19.883,241.185 19.519 C 241.183 19.348,240.738 19.002,240.194 18.750 C 239.651 18.498,239.306 18.452,239.428 18.649 M156.040 20.990 C 155.495 21.416,155.245 21.769,155.483 21.773 C 155.722 21.778,156.239 21.426,156.634 20.990 C 157.537 19.992,157.315 19.992,156.040 20.990 M244.172 22.589 C 244.886 23.378,245.547 23.610,245.541 23.069 C 245.540 22.906,245.072 22.556,244.503 22.292 C 243.491 21.822,243.483 21.828,244.172 22.589 M142.444 32.095 C 141.175 33.175,140.284 34.054,140.464 34.047 C 140.812 34.033,145.288 30.122,144.950 30.127 C 144.842 30.129,143.714 31.014,142.444 32.095 M253.861 30.203 C 253.861 30.335,255.243 31.547,256.931 32.896 C 259.432 34.894,259.643 35.009,258.072 33.515 C 257.012 32.508,256.043 31.683,255.919 31.683 C 255.796 31.683,255.282 31.296,254.778 30.822 C 254.274 30.348,253.861 30.070,253.861 30.203 M137.987 35.870 L 136.436 37.285 138.119 36.002 C 139.657 34.830,140.032 34.455,139.670 34.455 C 139.597 34.455,138.840 35.092,137.987 35.870 M271.663 44.929 C 272.185 45.485,272.673 45.941,272.746 45.941 C 273.103 45.941,271.821 44.342,271.305 44.144 C 270.979 44.019,271.140 44.372,271.663 44.929 M304.048 71.316 C 304.532 71.821,305.028 72.134,305.150 72.012 C 305.272 71.890,304.876 71.478,304.270 71.095 L 303.168 70.400 304.048 71.316 M318.020 82.471 C 318.020 82.782,324.193 87.921,324.567 87.921 C 324.728 87.921,323.944 87.176,322.826 86.267 C 321.707 85.357,320.792 84.466,320.792 84.286 C 320.792 84.107,320.581 83.960,320.323 83.960 C 320.064 83.960,319.441 83.573,318.936 83.099 C 318.432 82.626,318.020 82.343,318.020 82.471 M77.030 85.359 C 76.376 85.894,76.033 86.334,76.268 86.335 C 76.502 86.336,77.112 85.891,77.624 85.347 C 78.797 84.097,78.563 84.102,77.030 85.359 M335.446 96.758 C 335.446 96.867,336.337 97.702,337.426 98.614 C 338.515 99.526,339.406 100.183,339.406 100.074 C 339.406 99.965,338.515 99.130,337.426 98.218 C 336.337 97.306,335.446 96.649,335.446 96.758 M342.376 102.574 C 342.770 103.010,343.161 103.366,343.244 103.366 C 343.326 103.366,343.203 103.010,342.970 102.574 C 342.737 102.139,342.347 101.782,342.103 101.782 C 341.859 101.782,341.982 102.139,342.376 102.574 M350.495 109.037 C 350.495 109.145,351.411 110.000,352.531 110.937 C 353.779 111.983,354.355 112.303,354.019 111.766 C 353.719 111.285,353.351 110.891,353.202 110.891 C 353.054 110.891,352.384 110.430,351.714 109.866 C 351.043 109.302,350.495 108.929,350.495 109.037 M188.937 121.751 C 188.553 122.213,188.616 122.276,189.284 122.101 C 189.732 121.984,190.099 121.730,190.099 121.538 C 190.099 121.004,189.460 121.121,188.937 121.751 M384.752 137.426 C 385.825 138.515,386.792 139.406,386.901 139.406 C 387.010 139.406,386.221 138.515,385.149 137.426 C 384.076 136.337,383.109 135.446,383.000 135.446 C 382.891 135.446,383.680 136.337,384.752 137.426 M12.410 138.483 C 12.556 138.628,12.363 139.119,11.981 139.572 C 11.288 140.395,11.288 140.395,12.178 139.642 C 13.151 138.818,13.332 138.218,12.607 138.218 C 12.353 138.218,12.264 138.337,12.410 138.483 M5.149 149.703 C 4.489 151.010,4.038 152.079,4.147 152.079 C 4.256 152.079,4.885 151.010,5.545 149.703 C 6.204 148.396,6.655 147.327,6.546 147.327 C 6.437 147.327,5.808 148.396,5.149 149.703 M156.634 148.119 C 156.239 148.554,156.116 148.911,156.360 148.911 C 156.604 148.911,156.995 148.554,157.228 148.119 C 157.461 147.683,157.584 147.327,157.501 147.327 C 157.418 147.327,157.028 147.683,156.634 148.119 M393.744 149.280 C 394.237 150.137,394.708 150.770,394.791 150.687 C 394.962 150.516,393.298 147.723,393.025 147.723 C 392.928 147.723,393.251 148.424,393.744 149.280 M136.040 164.943 C 134.950 165.911,134.172 166.709,134.310 166.717 C 134.447 166.726,135.428 165.933,136.488 164.955 C 138.981 162.656,138.625 162.647,136.040 164.943 M260.594 163.293 C 260.594 163.401,261.485 164.237,262.574 165.149 C 263.663 166.060,264.554 166.717,264.554 166.608 C 264.554 166.499,263.663 165.664,262.574 164.752 C 261.485 163.841,260.594 163.184,260.594 163.293 M399.696 170.297 C 399.696 171.059,399.777 171.371,399.877 170.990 C 399.977 170.609,399.977 169.985,399.877 169.604 C 399.777 169.223,399.696 169.535,399.696 170.297 M197.912 173.751 C 198.615 173.839,199.863 173.840,200.684 173.754 C 201.506 173.669,200.931 173.597,199.406 173.595 C 197.881 173.594,197.209 173.664,197.912 173.751 M399.696 175.446 C 399.696 176.208,399.777 176.520,399.877 176.139 C 399.977 175.757,399.977 175.134,399.877 174.752 C 399.777 174.371,399.696 174.683,399.696 175.446 M274.851 175.202 C 274.851 175.286,275.342 175.670,275.941 176.055 L 277.030 176.756 276.275 175.903 C 275.608 175.148,274.851 174.775,274.851 175.202 M216.040 176.544 C 216.257 176.746,217.238 177.218,218.218 177.595 C 219.198 177.971,219.822 178.113,219.604 177.912 C 219.386 177.710,218.406 177.237,217.426 176.861 C 216.446 176.485,215.822 176.342,216.040 176.544 M179.505 177.657 C 178.797 177.967,178.218 178.311,178.218 178.422 C 178.218 178.629,180.996 177.552,181.333 177.215 C 181.670 176.878,180.812 177.086,179.505 177.657 M277.261 177.129 C 277.351 177.183,277.960 177.673,278.614 178.218 L 279.802 179.208 278.842 178.119 C 278.314 177.520,277.705 177.030,277.489 177.030 C 277.273 177.030,277.170 177.074,277.261 177.129 M5.155 194.313 C 5.151 194.561,5.515 195.184,5.963 195.699 C 6.603 196.433,6.691 196.464,6.372 195.842 C 5.685 194.498,5.161 193.840,5.155 194.313 M393.385 197.064 C 392.687 198.243,392.242 199.205,392.395 199.202 C 392.704 199.196,394.971 195.234,394.776 195.042 C 394.709 194.975,394.083 195.885,393.385 197.064 M252.760 202.983 C 253.353 203.607,253.908 204.037,253.995 203.939 C 254.082 203.842,253.597 203.332,252.918 202.806 L 251.683 201.850 252.760 202.983 M144.009 204.356 C 142.955 205.228,142.245 205.933,142.432 205.924 C 142.798 205.906,146.474 202.775,146.131 202.773 C 146.018 202.773,145.063 203.485,144.009 204.356 M256.238 205.889 C 257.218 206.770,258.140 207.499,258.286 207.508 C 258.717 207.535,256.416 205.395,255.393 204.817 C 254.877 204.525,255.257 205.008,256.238 205.889 M140.693 206.875 C 140.203 207.118,139.802 207.459,139.802 207.633 C 139.802 208.014,141.242 207.286,141.585 206.731 C 141.719 206.514,141.774 206.359,141.707 206.385 C 141.639 206.412,141.183 206.632,140.693 206.875 M384.738 208.416 L 382.772 210.495 384.851 208.530 C 386.784 206.704,387.112 206.337,386.817 206.337 C 386.754 206.337,385.819 207.272,384.738 208.416 M70.711 216.267 C 68.979 217.122,67.759 217.822,68.001 217.822 C 68.716 217.822,73.547 215.559,73.838 215.087 C 74.182 214.531,74.372 214.459,70.711 216.267 M27.327 216.436 C 28.307 216.961,29.376 217.388,29.703 217.385 C 30.030 217.382,29.339 216.945,28.167 216.413 C 25.459 215.183,25.010 215.195,27.327 216.436 M269.005 216.069 C 269.150 216.303,270.658 217.617,272.357 218.989 C 274.727 220.903,274.957 221.035,273.347 219.554 C 270.816 217.227,268.644 215.484,269.005 216.069 M326.337 216.037 C 326.337 216.304,330.345 218.301,330.523 218.124 C 330.605 218.042,329.696 217.498,328.504 216.913 C 327.312 216.328,326.337 215.934,326.337 216.037 M127.327 218.068 L 125.347 219.882 127.426 218.221 C 129.226 216.783,129.797 216.214,129.406 216.246 C 129.351 216.250,128.416 217.070,127.327 218.068 M30.702 217.757 C 30.915 217.951,31.709 218.317,32.466 218.571 C 33.224 218.824,33.669 218.873,33.456 218.679 C 33.243 218.485,32.450 218.119,31.692 217.865 C 30.935 217.612,30.489 217.563,30.702 217.757 M368.809 218.518 C 367.447 219.076,366.399 219.600,366.481 219.682 C 366.680 219.881,370.790 218.260,371.267 217.793 C 371.757 217.315,371.715 217.327,368.809 218.518 M65.149 218.648 C 64.059 219.068,63.651 219.320,64.240 219.208 C 65.629 218.943,67.327 218.295,67.327 218.030 C 67.327 217.915,67.282 217.836,67.228 217.852 C 67.173 217.869,66.238 218.227,65.149 218.648 M34.266 218.971 C 34.479 219.179,35.188 219.477,35.842 219.632 C 37.374 219.995,37.030 219.658,35.257 219.058 C 34.499 218.802,34.054 218.763,34.266 218.971 M316.040 254.572 C 317.020 255.469,317.962 256.211,318.133 256.221 C 318.304 256.230,317.858 255.743,317.142 255.139 C 314.886 253.233,314.183 252.871,316.040 254.572 M319.419 257.440 C 320.133 258.229,320.795 258.461,320.789 257.921 C 320.787 257.757,320.320 257.408,319.751 257.143 C 318.738 256.673,318.731 256.680,319.419 257.440 M334.344 269.518 C 334.937 270.141,335.493 270.571,335.579 270.474 C 335.666 270.377,335.181 269.867,334.502 269.341 L 333.267 268.385 334.344 269.518 M62.425 270.891 C 61.370 271.762,60.661 272.468,60.848 272.458 C 61.214 272.440,64.890 269.310,64.547 269.308 C 64.434 269.307,63.479 270.020,62.425 270.891 M337.822 272.393 C 338.802 273.291,339.744 274.033,339.915 274.043 C 340.086 274.052,339.640 273.565,338.925 272.961 C 336.668 271.054,335.965 270.693,337.822 272.393 M348.515 280.916 C 348.515 281.025,349.406 281.860,350.495 282.772 C 351.584 283.684,352.475 284.341,352.475 284.232 C 352.475 284.123,351.584 283.288,350.495 282.376 C 349.406 281.464,348.515 280.807,348.515 280.916 M45.743 284.603 L 43.762 286.417 45.842 284.756 C 47.642 283.317,48.212 282.748,47.822 282.780 C 47.767 282.785,46.832 283.605,45.743 284.603 M42.333 287.228 C 41.867 288.114,41.869 288.115,42.715 287.364 C 43.659 286.526,43.745 286.337,43.182 286.337 C 42.972 286.337,42.590 286.738,42.333 287.228 M188.856 295.436 L 187.921 296.219 189.007 295.733 C 189.604 295.466,190.094 295.114,190.096 294.950 C 190.101 294.496,189.872 294.585,188.856 295.436 M208.713 294.806 C 208.713 294.890,209.203 295.274,209.802 295.659 L 210.891 296.360 210.137 295.507 C 209.469 294.752,208.713 294.379,208.713 294.806 M185.916 297.921 L 184.752 299.208 186.137 298.020 C 186.898 297.366,187.596 296.787,187.688 296.733 C 187.780 296.678,187.680 296.634,187.467 296.634 C 187.253 296.634,186.555 297.213,185.916 297.921 M211.122 296.733 C 211.213 296.787,211.822 297.277,212.475 297.822 L 213.663 298.812 212.703 297.723 C 212.175 297.124,211.566 296.634,211.350 296.634 C 211.134 296.634,211.031 296.678,211.122 296.733 M368.477 297.368 C 369.315 298.312,369.505 298.398,369.505 297.836 C 369.505 297.626,369.104 297.243,368.614 296.986 C 367.728 296.521,367.727 296.523,368.477 297.368 M14.916 309.855 C 13.705 311.028,12.646 311.919,12.562 311.836 C 12.478 311.752,12.409 311.950,12.409 312.277 C 12.409 313.024,12.085 313.270,15.019 310.297 C 18.085 307.191,18.008 306.861,14.916 309.855 M383.762 309.827 C 383.762 309.895,384.342 310.474,385.050 311.114 L 386.337 312.277 385.173 310.990 C 384.089 309.790,383.762 309.521,383.762 309.827 M156.200 322.038 C 155.450 322.883,155.450 322.885,156.337 322.420 C 156.827 322.163,157.228 321.780,157.228 321.570 C 157.228 321.008,157.038 321.094,156.200 322.038 M393.465 322.376 C 393.803 323.030,394.169 323.564,394.278 323.564 C 394.387 323.564,394.199 323.030,393.861 322.376 C 393.523 321.723,393.158 321.188,393.049 321.188 C 392.940 321.188,393.127 321.723,393.465 322.376 M4.950 323.564 C 4.399 324.653,4.036 325.545,4.145 325.545 C 4.254 325.545,4.795 324.653,5.347 323.564 C 5.898 322.475,6.261 321.584,6.152 321.584 C 6.043 321.584,5.502 322.475,4.950 323.564 M138.020 336.880 L 136.040 338.694 138.119 337.033 C 139.919 335.595,140.490 335.026,140.099 335.058 C 140.045 335.062,139.109 335.882,138.020 336.880 M399.696 343.762 C 399.696 344.525,399.777 344.837,399.877 344.455 C 399.977 344.074,399.977 343.450,399.877 343.069 C 399.777 342.688,399.696 343.000,399.696 343.762 M124.752 347.568 C 123.337 348.761,121.911 350.037,121.584 350.404 C 121.257 350.771,121.447 350.675,122.006 350.189 C 122.564 349.704,123.233 349.307,123.491 349.307 C 123.749 349.307,123.960 349.160,123.960 348.981 C 123.960 348.802,124.875 347.911,125.994 347.001 C 127.112 346.091,127.870 345.359,127.677 345.373 C 127.484 345.388,126.168 346.376,124.752 347.568 M271.683 345.890 C 271.683 345.999,273.020 347.180,274.653 348.515 C 276.287 349.850,277.624 350.853,277.624 350.744 C 277.624 350.635,276.287 349.454,274.653 348.119 C 273.020 346.784,271.683 345.781,271.683 345.890 M399.696 348.911 C 399.696 349.673,399.777 349.985,399.877 349.604 C 399.977 349.223,399.977 348.599,399.877 348.218 C 399.777 347.837,399.696 348.149,399.696 348.911 M111.448 358.515 C 110.694 359.405,110.694 359.405,111.517 358.712 C 111.971 358.330,112.461 358.137,112.606 358.283 C 112.752 358.429,112.871 358.340,112.871 358.086 C 112.871 357.361,112.271 357.542,111.448 358.515 M107.091 362.042 L 106.337 362.895 107.426 362.194 C 108.549 361.471,108.761 361.188,108.180 361.188 C 107.996 361.188,107.506 361.572,107.091 362.042 M290.297 361.341 C 290.297 361.424,290.787 361.808,291.386 362.194 L 292.475 362.895 291.721 362.042 C 291.053 361.286,290.297 360.914,290.297 361.341 M101.584 366.594 C 100.391 367.659,100.302 367.807,101.223 367.191 C 102.318 366.460,103.695 365.125,103.316 365.163 C 103.235 365.172,102.455 365.815,101.584 366.594 M4.372 366.082 C 4.347 366.617,7.293 371.876,7.620 371.879 C 7.781 371.880,7.401 371.035,6.775 370.000 C 6.150 368.965,5.356 367.584,5.013 366.931 C 4.669 366.277,4.381 365.895,4.372 366.082 M394.535 368.524 C 394.061 369.499,393.757 370.297,393.858 370.297 C 394.127 370.297,395.727 367.080,395.548 366.901 C 395.465 366.818,395.009 367.548,394.535 368.524 M90.061 375.899 C 89.311 376.744,89.312 376.746,90.198 376.281 C 90.688 376.024,91.089 375.642,91.089 375.432 C 91.089 374.869,90.900 374.955,90.061 375.899 M9.934 375.941 C 10.025 375.995,10.634 376.485,11.287 377.030 L 12.475 378.020 11.515 376.931 C 10.987 376.332,10.378 375.842,10.162 375.842 C 9.946 375.842,9.843 375.886,9.934 375.941 M14.257 380.396 C 14.996 381.158,15.690 381.782,15.799 381.782 C 15.908 381.782,15.392 381.158,14.653 380.396 C 13.915 379.634,13.221 379.010,13.112 379.010 C 13.003 379.010,13.519 379.634,14.257 380.396 M384.740 381.829 C 383.440 383.162,382.555 384.187,382.774 384.106 C 383.204 383.948,387.552 379.406,387.273 379.406 C 387.180 379.406,386.040 380.496,384.740 381.829 M24.158 388.184 C 25.753 389.166,31.077 391.684,31.558 391.682 C 31.736 391.682,29.927 390.702,27.539 389.504 C 22.932 387.194,21.893 386.788,24.158 388.184 M73.366 388.511 C 72.039 389.320,71.538 390.029,72.772 389.350 C 73.692 388.844,75.101 387.751,74.851 387.737 C 74.743 387.731,74.074 388.079,73.366 388.511 M375.739 388.663 C 373.471 390.057,373.403 390.387,375.644 389.121 C 377.922 387.834,378.085 387.718,377.591 387.735 C 377.391 387.742,376.558 388.159,375.739 388.663 M325.545 389.089 C 325.545 389.197,326.079 389.563,326.733 389.901 C 327.386 390.239,327.921 390.426,327.921 390.317 C 327.921 390.208,327.386 389.843,326.733 389.505 C 326.079 389.167,325.545 388.980,325.545 389.089 M329.109 391.089 C 329.653 391.400,330.277 391.655,330.495 391.655 C 330.713 391.655,330.446 391.400,329.901 391.089 C 329.356 390.778,328.733 390.523,328.515 390.523 C 328.297 390.523,328.564 390.778,329.109 391.089 " stroke="none" fill="#575757" fill-rule="evenodd"></path><path id="path3" d="M195.743 0.273 C 196.124 0.373,196.748 0.373,197.129 0.273 C 197.510 0.173,197.198 0.092,196.436 0.092 C 195.673 0.092,195.361 0.173,195.743 0.273 M201.683 0.273 C 202.064 0.373,202.688 0.373,203.069 0.273 C 203.450 0.173,203.139 0.092,202.376 0.092 C 201.614 0.092,201.302 0.173,201.683 0.273 M170.914 8.527 C 170.244 9.034,170.231 9.109,170.815 9.109 C 171.184 9.109,171.485 8.944,171.485 8.742 C 171.485 8.540,171.797 8.293,172.178 8.194 C 172.663 8.067,172.693 8.003,172.277 7.979 C 171.950 7.961,171.337 8.208,170.914 8.527 M227.327 8.667 C 227.327 8.910,227.575 9.109,227.878 9.109 C 228.182 9.109,228.533 9.376,228.658 9.703 C 228.783 10.030,229.159 10.297,229.493 10.297 C 229.826 10.297,230.099 10.431,230.099 10.594 C 230.099 10.757,230.741 11.403,231.525 12.029 C 232.766 13.019,232.891 13.055,232.489 12.304 C 232.235 11.829,231.727 11.325,231.360 11.185 C 230.993 11.045,230.426 10.627,230.099 10.257 C 229.187 9.225,227.327 8.158,227.327 8.667 M168.713 10.297 C 168.277 10.733,167.763 11.089,167.570 11.089 C 167.378 11.089,166.901 11.579,166.510 12.178 C 165.877 13.151,166.009 13.102,167.752 11.715 C 170.489 9.536,170.521 9.505,169.980 9.505 C 169.719 9.505,169.149 9.861,168.713 10.297 M158.195 18.799 C 157.772 19.119,157.604 19.381,157.822 19.381 C 158.040 19.381,158.564 19.119,158.987 18.799 C 159.409 18.479,159.577 18.218,159.359 18.218 C 159.141 18.218,158.617 18.479,158.195 18.799 M153.996 22.223 C 152.397 23.555,151.020 24.847,150.936 25.095 C 150.851 25.342,151.208 25.168,151.728 24.707 C 152.248 24.246,153.094 23.534,153.609 23.123 C 154.123 22.712,154.818 22.109,155.154 21.782 C 155.489 21.455,156.227 20.877,156.793 20.498 C 157.359 20.118,157.615 19.806,157.363 19.805 C 157.110 19.803,155.595 20.892,153.996 22.223 M241.991 20.481 C 242.530 20.855,243.316 21.479,243.738 21.867 C 244.365 22.445,245.668 22.959,245.116 22.411 C 244.263 21.565,241.780 19.802,241.442 19.802 C 241.205 19.802,241.453 20.108,241.991 20.481 M245.545 23.339 C 245.545 23.572,245.689 23.762,245.866 23.762 C 246.043 23.762,246.577 24.126,247.054 24.570 C 247.531 25.014,247.921 25.204,247.921 24.993 C 247.921 24.781,247.386 24.228,246.733 23.762 C 246.079 23.297,245.545 23.107,245.545 23.339 M140.433 33.331 C 137.687 35.544,135.526 37.440,135.631 37.545 C 135.735 37.649,136.510 37.131,137.353 36.392 C 138.196 35.654,139.227 34.782,139.644 34.455 C 140.271 33.965,144.120 30.802,145.525 29.623 C 145.732 29.449,145.794 29.307,145.663 29.307 C 145.533 29.307,143.179 31.118,140.433 33.331 M257.426 32.876 C 257.970 33.348,258.959 34.209,259.622 34.788 C 260.286 35.368,261.223 36.182,261.704 36.598 C 262.185 37.014,262.669 37.265,262.779 37.155 C 262.889 37.045,261.874 36.081,260.524 35.012 C 257.785 32.845,255.866 31.521,257.426 32.876 M263.923 38.358 C 264.761 39.302,264.950 39.388,264.950 38.826 C 264.950 38.616,264.550 38.233,264.059 37.976 C 263.173 37.511,263.172 37.513,263.923 38.358 M126.694 44.592 C 122.782 47.753,121.741 48.682,122.772 48.094 C 123.995 47.397,131.015 41.584,130.634 41.584 C 130.515 41.584,128.741 42.938,126.694 44.592 M269.109 42.544 C 269.762 43.111,270.653 43.767,271.089 44.001 C 271.525 44.235,271.347 43.963,270.693 43.396 C 270.040 42.829,269.149 42.174,268.713 41.940 C 268.277 41.705,268.455 41.978,269.109 42.544 M272.277 45.043 C 273.478 46.248,278.016 49.875,277.997 49.614 C 277.973 49.288,273.578 45.587,272.513 44.996 C 272.091 44.762,272.012 44.778,272.277 45.043 M118.416 51.287 C 118.141 51.619,118.098 51.881,118.319 51.881 C 118.537 51.881,118.937 51.614,119.208 51.287 C 119.483 50.956,119.526 50.693,119.305 50.693 C 119.087 50.693,118.687 50.960,118.416 51.287 M113.956 55.063 C 112.053 56.595,110.495 57.943,110.495 58.058 C 110.495 58.247,115.778 54.118,117.214 52.807 C 118.782 51.374,117.041 52.580,113.956 55.063 M283.168 53.978 C 283.168 54.149,287.493 57.627,288.886 58.576 C 290.128 59.421,289.176 58.524,286.535 56.359 C 284.064 54.334,283.168 53.701,283.168 53.978 M105.687 61.805 C 104.802 62.576,104.798 62.597,105.622 62.198 C 106.099 61.967,106.600 61.601,106.734 61.384 C 107.123 60.754,106.696 60.926,105.687 61.805 M292.191 61.480 C 292.652 62.036,294.257 62.711,294.257 62.349 C 294.257 62.266,293.678 61.899,292.970 61.533 C 291.882 60.971,291.762 60.962,292.191 61.480 M101.494 65.198 L 99.208 67.426 101.881 65.325 C 103.351 64.170,104.554 63.167,104.554 63.097 C 104.554 62.541,103.427 63.316,101.494 65.198 M294.757 63.640 C 295.125 64.008,295.559 64.177,295.722 64.014 C 295.884 63.852,295.754 63.554,295.434 63.351 C 294.470 62.741,294.041 62.924,294.757 63.640 M296.269 64.384 C 296.252 64.618,297.441 65.752,298.911 66.904 L 301.584 69.001 299.438 66.976 C 298.257 65.862,297.158 64.950,296.996 64.950 C 296.833 64.950,296.610 64.728,296.500 64.455 C 296.390 64.183,296.286 64.151,296.269 64.384 M92.376 72.488 C 91.886 72.685,91.485 72.941,91.485 73.057 C 91.485 73.441,92.115 73.275,92.895 72.686 C 93.771 72.023,93.648 71.976,92.376 72.488 M90.470 74.172 C 88.839 75.133,86.796 76.889,86.545 77.546 C 86.337 78.090,86.440 78.067,87.086 77.426 C 87.860 76.659,89.256 75.504,90.891 74.281 C 91.845 73.568,91.603 73.505,90.470 74.172 M307.921 74.273 C 309.314 75.300,310.964 76.616,311.630 77.230 C 311.986 77.559,312.704 78.182,313.226 78.617 L 314.175 79.406 313.707 78.515 C 313.450 78.025,313.076 77.624,312.875 77.624 C 312.675 77.624,312.083 77.223,311.560 76.733 C 309.737 75.025,307.945 73.663,307.538 73.676 C 307.313 73.683,307.485 73.951,307.921 74.273 M84.956 78.701 L 84.261 79.802 85.178 78.922 C 85.682 78.438,85.995 77.942,85.873 77.820 C 85.751 77.699,85.339 78.095,84.956 78.701 M78.416 83.762 C 78.141 84.094,78.098 84.356,78.319 84.356 C 78.537 84.356,78.937 84.089,79.208 83.762 C 79.483 83.431,79.526 83.168,79.305 83.168 C 79.087 83.168,78.687 83.436,78.416 83.762 M74.299 87.197 C 72.643 88.542,71.287 89.802,71.287 89.998 C 71.287 90.194,71.523 90.118,71.811 89.830 C 72.099 89.542,73.007 88.772,73.829 88.119 C 75.976 86.411,77.803 84.752,77.539 84.752 C 77.414 84.752,75.956 85.853,74.299 87.197 M321.615 85.260 C 321.959 85.525,323.185 86.545,324.340 87.525 C 327.117 89.881,327.191 89.946,328.434 91.059 C 329.023 91.587,329.505 91.847,329.505 91.636 C 329.505 91.213,321.774 84.745,321.292 84.765 C 321.126 84.772,321.271 84.995,321.615 85.260 M69.695 90.901 C 68.930 91.823,69.476 91.997,70.295 91.092 C 70.690 90.655,70.830 90.297,70.605 90.297 C 70.380 90.297,69.971 90.569,69.695 90.901 M334.653 95.919 C 336.079 97.300,341.831 101.865,341.970 101.726 C 342.133 101.563,335.759 96.278,334.693 95.692 C 334.131 95.383,334.127 95.409,334.653 95.919 M59.304 99.474 C 57.615 100.813,56.316 101.993,56.419 102.095 C 56.572 102.248,59.604 99.849,62.164 97.551 C 63.643 96.223,62.080 97.273,59.304 99.474 M54.829 103.136 C 54.406 103.445,54.165 103.802,54.293 103.930 C 54.422 104.058,54.850 103.806,55.245 103.369 C 56.087 102.439,55.914 102.342,54.829 103.136 M347.327 106.242 C 347.327 106.432,352.075 110.228,352.871 110.674 C 353.650 111.111,353.198 110.691,350.495 108.468 C 348.269 106.637,347.327 105.975,347.327 106.242 M46.263 110.157 C 43.799 112.150,41.515 114.046,41.188 114.371 C 39.840 115.714,41.907 114.182,46.331 110.559 C 51.763 106.112,51.274 106.535,50.983 106.535 C 50.852 106.535,48.728 108.165,46.263 110.157 M355.248 112.804 C 356.228 113.693,357.208 114.425,357.426 114.430 C 357.837 114.438,356.706 113.454,354.653 112.017 C 354.000 111.560,354.267 111.914,355.248 112.804 M358.812 115.842 C 359.083 116.168,359.483 116.436,359.701 116.436 C 359.922 116.436,359.879 116.173,359.604 115.842 C 359.333 115.515,358.933 115.248,358.715 115.248 C 358.494 115.248,358.537 115.510,358.812 115.842 M37.590 117.223 C 37.244 117.425,36.086 118.418,35.015 119.429 L 33.069 121.267 35.743 119.211 C 37.213 118.081,38.416 117.083,38.416 116.994 C 38.416 116.771,38.314 116.800,37.590 117.223 M361.584 118.028 C 362.347 118.707,363.327 119.448,363.762 119.675 C 364.198 119.902,363.931 119.531,363.168 118.852 C 362.406 118.173,361.426 117.431,360.990 117.205 C 360.554 116.978,360.822 117.349,361.584 118.028 M204.792 118.317 C 205.093 118.807,205.564 119.208,205.838 119.208 C 206.112 119.208,206.337 119.364,206.337 119.556 C 206.337 120.014,210.654 123.339,210.914 123.080 C 211.024 122.970,210.651 122.576,210.085 122.206 C 208.995 121.491,207.843 120.583,206.783 119.601 C 206.429 119.273,205.712 118.649,205.191 118.215 L 204.244 117.426 204.792 118.317 M191.788 119.819 C 191.519 120.111,190.986 120.525,190.603 120.739 C 190.221 120.954,190.002 121.223,190.118 121.339 C 190.233 121.455,190.856 121.127,191.501 120.612 C 192.146 120.097,192.584 119.588,192.475 119.481 C 192.366 119.375,192.057 119.527,191.788 119.819 M31.089 122.633 C 29.896 123.699,29.807 123.847,30.728 123.231 C 31.823 122.499,33.200 121.165,32.821 121.203 C 32.740 121.211,31.960 121.855,31.089 122.633 M188.294 122.562 C 187.871 122.881,187.713 123.149,187.944 123.156 C 188.175 123.163,188.709 122.907,189.132 122.587 C 189.555 122.267,189.712 122.000,189.482 121.993 C 189.251 121.986,188.716 122.242,188.294 122.562 M211.660 124.171 C 212.083 124.491,212.607 124.752,212.825 124.752 C 213.042 124.752,212.875 124.491,212.452 124.171 C 212.029 123.851,211.505 123.590,211.287 123.590 C 211.069 123.590,211.237 123.851,211.660 124.171 M183.453 126.634 C 182.505 127.559,182.489 127.605,183.347 126.937 C 185.037 125.620,185.118 125.545,184.838 125.545 C 184.689 125.545,184.065 126.035,183.453 126.634 M23.861 128.312 C 23.153 128.744,22.574 129.278,22.574 129.499 C 22.574 129.720,22.399 129.901,22.185 129.901 C 21.972 129.901,21.125 130.556,20.304 131.357 C 18.509 133.110,19.427 132.657,21.834 130.603 C 22.786 129.791,24.010 128.773,24.554 128.339 C 25.829 127.324,25.503 127.312,23.861 128.312 M374.257 128.337 C 374.802 128.761,375.510 129.331,375.831 129.604 C 378.910 132.217,378.776 132.131,378.252 131.152 C 377.987 130.657,377.470 130.138,377.103 129.999 C 376.736 129.859,376.128 129.357,375.752 128.882 C 375.376 128.407,374.663 127.916,374.168 127.792 C 373.288 127.571,373.290 127.583,374.257 128.337 M180.198 129.168 C 179.436 129.837,179.170 130.203,179.608 129.981 C 180.332 129.615,182.126 127.899,181.745 127.937 C 181.656 127.946,180.960 128.500,180.198 129.168 M220.792 131.353 C 222.436 132.985,224.158 134.197,224.158 133.722 C 224.158 133.659,222.955 132.658,221.485 131.497 L 218.812 129.387 220.792 131.353 M176.501 132.132 C 175.485 132.924,174.653 133.637,174.653 133.716 C 174.653 134.243,175.679 133.634,177.077 132.277 C 179.106 130.308,178.906 130.258,176.501 132.132 M172.834 135.107 C 172.083 135.952,172.084 135.954,172.970 135.489 C 173.460 135.232,173.861 134.850,173.861 134.640 C 173.861 134.077,173.672 134.163,172.834 135.107 M224.554 134.590 C 224.554 134.773,225.041 135.144,225.636 135.415 C 226.715 135.907,226.716 135.906,225.971 135.083 C 225.200 134.231,224.554 134.007,224.554 134.590 M14.034 137.129 L 12.871 138.416 14.158 137.253 C 14.866 136.613,15.446 136.034,15.446 135.966 C 15.446 135.660,15.119 135.929,14.034 137.129 M385.510 137.825 C 386.580 139.021,387.792 140.356,388.202 140.792 C 388.612 141.228,389.201 141.941,389.510 142.376 C 389.836 142.834,390.079 142.952,390.086 142.655 C 390.093 142.373,389.668 141.711,389.142 141.185 C 388.615 140.659,387.947 139.899,387.657 139.496 C 387.366 139.094,386.327 138.064,385.347 137.208 L 383.564 135.651 385.510 137.825 M227.129 136.492 C 229.145 138.281,229.888 138.803,229.111 137.884 C 228.679 137.374,227.967 136.773,227.529 136.549 C 227.091 136.324,226.911 136.299,227.129 136.492 M11.564 139.089 C 11.303 139.350,11.089 139.685,11.089 139.831 C 11.089 139.978,10.465 140.779,9.703 141.612 C 8.428 143.003,7.783 144.535,8.713 143.960 C 8.931 143.826,9.109 143.478,9.109 143.187 C 9.109 142.897,9.376 142.556,9.703 142.431 C 10.030 142.306,10.297 141.930,10.297 141.597 C 10.297 141.263,10.442 140.990,10.619 140.990 C 10.795 140.990,11.335 140.455,11.819 139.802 C 12.679 138.639,12.504 138.149,11.564 139.089 M230.891 139.523 C 230.891 139.673,234.854 142.888,236.510 144.082 C 238.205 145.304,237.024 144.114,234.777 142.336 C 231.728 139.922,230.891 139.317,230.891 139.523 M165.412 141.241 C 163.444 142.774,162.821 143.576,164.653 142.216 C 166.624 140.755,167.727 139.820,167.491 139.811 C 167.363 139.806,166.427 140.450,165.412 141.241 M159.764 145.800 C 159.015 146.644,159.016 146.647,159.879 146.194 C 160.842 145.689,161.434 144.950,160.877 144.950 C 160.680 144.950,160.179 145.333,159.764 145.800 M238.020 145.545 C 238.291 145.871,238.691 146.139,238.909 146.139 C 239.130 146.139,239.087 145.876,238.812 145.545 C 238.541 145.218,238.141 144.950,237.923 144.950 C 237.702 144.950,237.745 145.213,238.020 145.545 M240.000 146.821 C 240.000 147.319,241.132 148.307,241.398 148.041 C 241.503 147.936,241.231 147.526,240.795 147.131 C 240.358 146.735,240.000 146.596,240.000 146.821 M242.376 148.990 C 243.404 150.005,251.259 156.284,251.881 156.588 C 252.208 156.747,251.858 156.377,251.104 155.765 C 250.350 155.154,248.211 153.397,246.351 151.862 C 243.009 149.102,241.077 147.707,242.376 148.990 M153.652 150.816 C 152.448 151.838,150.755 153.266,149.890 153.990 C 149.025 154.715,148.584 155.174,148.911 155.011 C 149.238 154.848,150.931 153.555,152.673 152.137 C 156.818 148.764,156.660 148.907,156.218 148.935 C 156.011 148.948,154.856 149.795,153.652 150.816 M255.050 159.148 C 255.050 159.492,264.963 167.652,265.140 167.454 C 265.203 167.384,262.958 165.418,260.152 163.085 C 257.346 160.752,255.050 158.981,255.050 159.148 M142.299 160.234 L 141.188 161.261 142.475 160.405 C 143.654 159.622,144.038 159.208,143.586 159.208 C 143.490 159.208,142.910 159.670,142.299 160.234 M139.598 162.289 C 138.941 162.881,137.604 164.052,136.627 164.890 C 134.472 166.740,135.643 166.007,138.735 163.570 C 139.975 162.592,140.990 161.657,140.990 161.490 C 140.990 161.056,140.919 161.097,139.598 162.289 M127.289 172.335 C 126.539 173.180,126.539 173.182,127.426 172.717 C 127.916 172.460,128.317 172.077,128.317 171.867 C 128.317 171.305,128.127 171.391,127.289 172.335 M270.495 171.771 C 270.495 172.270,271.627 173.257,271.893 172.991 C 271.998 172.886,271.727 172.477,271.290 172.081 C 270.853 171.686,270.495 171.546,270.495 171.771 M125.649 173.680 C 125.380 173.973,124.847 174.387,124.465 174.601 C 124.082 174.815,123.864 175.085,123.979 175.200 C 124.095 175.316,124.717 174.989,125.362 174.473 C 126.007 173.958,126.446 173.449,126.337 173.343 C 126.228 173.236,125.918 173.388,125.649 173.680 M272.475 173.367 C 272.475 173.833,276.414 177.030,276.984 177.027 C 277.227 177.026,276.975 176.714,276.424 176.334 C 275.424 175.644,274.063 174.524,273.025 173.536 C 272.723 173.248,272.475 173.172,272.475 173.367 M122.155 176.423 C 121.732 176.743,121.575 177.010,121.805 177.017 C 122.036 177.024,122.571 176.768,122.994 176.448 C 123.416 176.128,123.574 175.861,123.343 175.854 C 123.112 175.847,122.578 176.103,122.155 176.423 M120.221 178.032 C 119.799 178.352,119.631 178.614,119.849 178.614 C 120.066 178.614,120.591 178.352,121.013 178.032 C 121.436 177.713,121.604 177.451,121.386 177.451 C 121.168 177.451,120.644 177.713,120.221 178.032 M219.406 177.621 C 219.406 177.888,223.415 179.886,223.593 179.708 C 223.674 179.626,222.765 179.082,221.573 178.497 C 220.381 177.913,219.406 177.519,219.406 177.621 M177.030 178.614 C 176.267 179.031,175.786 179.380,175.960 179.389 C 176.380 179.411,178.614 178.250,178.614 178.010 C 178.614 177.750,178.591 177.759,177.030 178.614 M226.756 181.968 C 227.179 182.287,227.748 182.555,228.020 182.562 C 228.292 182.569,228.515 182.719,228.515 182.896 C 228.515 183.073,229.065 183.624,229.737 184.121 C 230.899 184.980,230.937 184.984,230.521 184.208 C 230.281 183.759,229.315 182.940,228.374 182.389 C 226.506 181.294,225.530 181.040,226.756 181.968 M170.338 182.482 C 169.844 182.859,168.520 184.037,167.394 185.099 L 165.347 187.030 167.542 185.297 C 168.750 184.344,170.176 183.272,170.711 182.915 C 171.246 182.557,171.582 182.159,171.459 182.030 C 171.335 181.901,170.831 182.104,170.338 182.482 M112.052 184.666 C 111.493 185.149,110.334 186.118,109.478 186.819 C 108.622 187.520,107.475 188.464,106.931 188.918 L 105.941 189.742 107.129 189.161 C 107.782 188.841,109.008 187.941,109.852 187.161 C 110.696 186.381,111.522 185.743,111.687 185.743 C 111.853 185.743,112.280 185.297,112.637 184.752 C 113.425 183.550,113.356 183.539,112.052 184.666 M287.890 186.081 C 288.321 186.886,289.819 187.937,290.115 187.641 C 290.195 187.561,289.627 186.990,288.852 186.372 C 287.670 185.429,287.516 185.382,287.890 186.081 M290.693 188.437 C 290.693 188.628,291.150 188.992,291.708 189.246 C 292.288 189.511,292.619 189.539,292.478 189.312 C 292.119 188.731,290.693 188.032,290.693 188.437 M239.268 191.899 C 239.628 192.267,240.138 192.495,240.402 192.407 C 240.666 192.319,240.372 192.019,239.748 191.739 C 238.686 191.263,238.656 191.273,239.268 191.899 M158.515 192.092 C 158.025 192.289,157.624 192.545,157.624 192.661 C 157.624 193.045,158.254 192.879,159.033 192.290 C 159.909 191.627,159.787 191.580,158.515 192.092 M155.089 194.814 C 154.021 195.660,152.963 196.682,152.737 197.086 C 152.332 197.809,152.480 197.704,155.446 195.152 C 155.881 194.777,156.594 194.205,157.030 193.882 C 157.465 193.558,157.644 193.289,157.426 193.284 C 157.208 193.280,156.156 193.968,155.089 194.814 M241.709 193.786 C 242.104 194.045,242.981 194.746,243.658 195.344 C 244.335 195.942,244.977 196.343,245.085 196.235 C 245.193 196.128,245.206 195.988,245.116 195.925 C 245.025 195.862,244.276 195.238,243.452 194.539 C 242.627 193.839,241.736 193.278,241.471 193.291 C 241.207 193.303,241.313 193.526,241.709 193.786 M96.436 197.469 L 94.851 198.887 96.535 197.628 C 97.983 196.544,98.506 196.022,98.119 196.045 C 98.064 196.049,97.307 196.689,96.436 197.469 M302.353 197.806 C 304.109 199.467,305.743 200.661,305.743 200.283 C 305.743 200.206,304.540 199.200,303.069 198.048 L 300.396 195.955 302.353 197.806 M93.491 199.771 C 93.108 200.233,93.171 200.295,93.845 200.119 C 94.836 199.860,95.324 199.208,94.527 199.208 C 94.214 199.208,93.748 199.461,93.491 199.771 M392.110 199.703 C 392.093 200.084,391.901 200.396,391.683 200.396 C 391.465 200.396,391.287 200.649,391.287 200.957 C 391.287 201.266,391.153 201.578,390.990 201.650 C 390.417 201.905,387.674 205.545,388.055 205.545 C 388.669 205.545,392.565 200.061,392.343 199.509 C 392.221 199.206,392.129 199.282,392.110 199.703 M8.317 199.951 C 8.317 200.227,8.540 200.695,8.812 200.992 C 9.084 201.289,9.842 202.274,10.495 203.181 C 11.149 204.088,12.218 205.194,12.871 205.639 L 14.059 206.448 13.069 205.475 C 12.052 204.475,11.022 203.201,9.301 200.814 C 8.759 200.064,8.317 199.676,8.317 199.951 M308.119 202.494 C 308.119 202.574,308.876 203.235,309.802 203.963 C 311.279 205.125,311.364 205.153,310.495 204.191 C 309.593 203.193,308.119 202.140,308.119 202.494 M87.321 204.872 C 86.011 206.004,84.318 207.439,83.559 208.060 C 82.799 208.681,82.446 209.051,82.772 208.883 C 83.099 208.714,84.792 207.416,86.535 205.998 C 90.682 202.623,90.521 202.769,90.079 202.792 C 89.872 202.804,88.631 203.739,87.321 204.872 M143.959 203.873 C 143.305 204.466,142.147 205.439,141.385 206.035 C 140.623 206.632,140.178 207.122,140.396 207.124 C 140.614 207.126,141.327 206.663,141.980 206.095 C 142.634 205.528,143.788 204.548,144.546 203.918 C 145.303 203.288,145.749 202.778,145.536 202.784 C 145.323 202.790,144.613 203.280,143.959 203.873 M254.875 204.542 C 255.298 204.862,255.822 205.123,256.040 205.123 C 256.257 205.123,256.090 204.862,255.667 204.542 C 255.244 204.222,254.720 203.960,254.502 203.960 C 254.284 203.960,254.452 204.222,254.875 204.542 M258.610 207.455 C 259.805 208.551,260.875 209.355,260.986 209.243 C 261.197 209.028,259.648 207.661,257.624 206.275 C 256.970 205.828,257.414 206.358,258.610 207.455 M315.248 208.300 C 316.228 209.204,317.386 210.134,317.822 210.367 C 318.834 210.908,318.349 210.459,315.644 208.353 L 313.465 206.657 315.248 208.300 M16.238 208.911 C 16.977 209.673,17.670 210.297,17.779 210.297 C 17.888 210.297,17.373 209.673,16.634 208.911 C 15.895 208.149,15.201 207.525,15.092 207.525 C 14.983 207.525,15.499 208.149,16.238 208.911 M138.514 208.382 C 137.916 208.818,137.426 209.351,137.426 209.566 C 137.426 209.781,137.702 209.681,138.039 209.344 C 138.377 209.006,138.955 208.562,139.323 208.355 C 139.692 208.149,139.905 207.892,139.798 207.785 C 139.690 207.677,139.113 207.946,138.514 208.382 M18.602 211.067 C 18.842 211.515,19.299 211.881,19.618 211.881 C 19.937 211.881,20.198 212.041,20.198 212.236 C 20.198 212.798,24.086 215.143,24.645 214.919 C 25.044 214.758,25.041 214.710,24.632 214.685 C 24.349 214.668,22.778 213.663,21.141 212.454 C 19.283 211.079,18.330 210.559,18.602 211.067 M380.792 211.938 C 379.295 213.300,377.947 214.257,377.525 214.257 C 377.252 214.257,377.030 214.436,377.030 214.653 C 377.030 214.871,376.762 215.050,376.436 215.050 C 376.109 215.050,375.842 215.233,375.842 215.457 C 375.842 215.940,378.440 214.502,380.281 213.001 C 380.995 212.419,381.491 211.860,381.384 211.760 C 381.276 211.660,381.010 211.740,380.792 211.938 M74.004 215.073 L 73.069 215.889 74.257 215.193 C 75.821 214.277,75.844 214.257,75.357 214.257 C 75.127 214.257,74.519 214.624,74.004 215.073 M323.960 215.070 C 324.993 215.773,326.733 216.661,326.733 216.485 C 326.733 216.265,323.999 214.652,323.641 214.660 C 323.490 214.663,323.634 214.848,323.960 215.070 M126.672 218.079 C 122.030 221.879,122.135 221.784,122.594 221.775 C 122.801 221.770,123.683 221.134,124.554 220.360 C 125.426 219.586,127.163 218.137,128.416 217.141 C 130.530 215.459,130.944 215.050,130.533 215.050 C 130.445 215.050,128.707 216.413,126.672 218.079 M269.109 216.010 C 269.762 216.577,270.653 217.232,271.089 217.466 C 271.525 217.700,271.347 217.428,270.693 216.862 C 270.040 216.295,269.149 215.639,268.713 215.405 C 268.277 215.171,268.455 215.443,269.109 216.010 M373.168 216.817 C 372.025 217.350,371.089 217.874,371.089 217.983 C 371.089 218.200,374.943 216.476,375.335 216.084 C 375.749 215.670,375.321 215.815,373.168 216.817 M69.703 217.228 C 69.158 217.539,68.891 217.794,69.109 217.794 C 69.327 217.794,69.950 217.539,70.495 217.228 C 71.040 216.916,71.307 216.662,71.089 216.662 C 70.871 216.662,70.248 216.916,69.703 217.228 M273.465 219.565 C 274.337 220.354,275.406 221.185,275.842 221.412 C 276.778 221.899,274.776 220.118,273.069 218.945 C 272.257 218.388,272.383 218.584,273.465 219.565 M49.010 221.666 C 49.500 221.760,50.302 221.760,50.792 221.666 C 51.282 221.571,50.881 221.494,49.901 221.494 C 48.921 221.494,48.520 221.571,49.010 221.666 M347.232 222.458 C 347.725 222.553,348.438 222.549,348.816 222.450 C 349.195 222.351,348.792 222.274,347.921 222.278 C 347.050 222.282,346.740 222.364,347.232 222.458 M351.985 222.458 C 352.477 222.553,353.190 222.549,353.569 222.450 C 353.948 222.351,353.545 222.274,352.673 222.278 C 351.802 222.282,351.492 222.364,351.985 222.458 M120.352 223.465 C 119.887 224.352,119.889 224.352,120.734 223.602 C 121.678 222.764,121.765 222.574,121.202 222.574 C 120.992 222.574,120.610 222.975,120.352 223.465 M112.783 229.416 C 109.576 232.054,107.039 234.300,107.145 234.406 C 107.252 234.512,107.915 234.061,108.620 233.403 C 109.324 232.746,111.861 230.632,114.257 228.706 C 119.659 224.366,119.450 224.547,118.990 224.587 C 118.783 224.605,115.990 226.778,112.783 229.416 M283.366 227.625 C 284.372 228.653,288.785 232.139,288.916 232.009 C 288.996 231.928,287.968 230.975,286.630 229.891 C 284.261 227.971,282.527 226.767,283.366 227.625 M292.438 235.190 C 292.853 235.657,293.353 236.040,293.550 236.040 C 294.108 236.040,293.515 235.301,292.552 234.796 C 291.689 234.343,291.688 234.346,292.438 235.190 M105.708 235.243 C 105.363 235.445,104.205 236.437,103.134 237.448 L 101.188 239.287 103.861 237.231 C 105.332 236.100,106.535 235.102,106.535 235.013 C 106.535 234.791,106.432 234.820,105.708 235.243 M294.653 236.888 C 295.606 237.861,301.386 242.447,301.386 242.229 C 301.386 242.043,295.939 237.556,294.653 236.684 C 294.125 236.326,294.125 236.348,294.653 236.888 M302.375 243.106 C 302.806 243.616,303.518 244.217,303.956 244.442 C 304.797 244.872,304.675 244.740,302.775 243.162 C 301.632 242.213,301.617 242.211,302.375 243.106 M92.277 246.139 C 91.596 246.528,91.488 246.709,91.932 246.719 C 92.286 246.726,92.798 246.465,93.069 246.139 C 93.672 245.412,93.548 245.412,92.277 246.139 M305.917 246.158 C 306.769 246.794,307.493 246.926,307.158 246.384 C 307.040 246.193,306.539 245.934,306.046 245.810 C 305.180 245.592,305.176 245.604,305.917 246.158 M307.327 247.293 C 307.327 247.342,308.516 248.336,309.970 249.501 C 311.696 250.884,312.349 251.256,311.851 250.574 C 311.432 250.000,310.887 249.524,310.640 249.517 C 310.392 249.511,309.914 249.083,309.576 248.568 C 309.100 247.842,307.327 246.836,307.327 247.293 M88.011 249.749 C 86.126 251.597,86.027 251.753,87.426 250.672 C 88.351 249.957,89.109 249.224,89.109 249.043 C 89.109 248.861,89.354 248.713,89.654 248.713 C 89.955 248.713,90.422 248.446,90.693 248.119 C 91.977 246.571,90.071 247.730,88.011 249.749 M75.301 259.872 C 74.182 260.782,73.267 261.671,73.267 261.848 C 73.267 262.160,74.276 261.445,75.628 260.174 C 75.990 259.834,76.716 259.255,77.241 258.887 C 77.766 258.519,78.002 258.218,77.765 258.218 C 77.528 258.218,76.419 258.962,75.301 259.872 M321.595 258.895 C 322.134 259.267,322.772 259.757,323.014 259.984 C 323.256 260.211,324.121 260.931,324.935 261.584 C 325.750 262.238,326.666 263.008,326.971 263.296 C 327.275 263.583,327.525 263.656,327.525 263.456 C 327.525 262.958,326.181 261.782,325.612 261.782 C 325.357 261.782,325.149 261.628,325.149 261.439 C 325.149 261.002,321.593 258.218,321.035 258.218 C 320.804 258.218,321.056 258.522,321.595 258.895 M71.675 262.782 C 70.910 263.704,71.456 263.878,72.275 262.973 C 72.670 262.536,72.810 262.178,72.585 262.178 C 72.360 262.178,71.951 262.450,71.675 262.782 M335.050 269.752 C 335.594 270.270,336.663 271.165,337.426 271.742 C 338.188 272.319,339.176 273.121,339.620 273.524 C 341.504 275.234,342.284 275.814,342.137 275.397 C 342.051 275.153,340.465 273.720,338.614 272.213 C 335.082 269.337,333.370 268.155,335.050 269.752 M59.802 272.511 C 57.733 274.244,55.966 275.880,55.877 276.147 C 55.788 276.415,56.424 276.010,57.292 275.248 C 59.143 273.621,62.836 270.505,63.731 269.815 C 64.075 269.549,64.178 269.339,63.960 269.347 C 63.743 269.354,61.871 270.778,59.802 272.511 M347.525 279.895 C 348.504 280.914,352.943 284.416,353.082 284.278 C 353.167 284.193,352.228 283.329,350.997 282.359 C 348.478 280.374,346.931 279.276,347.525 279.895 M47.004 283.064 C 44.925 284.750,43.285 286.189,43.359 286.263 C 43.432 286.337,45.068 285.117,46.994 283.553 C 50.980 280.316,51.337 280.000,51.016 280.000 C 50.888 280.000,49.083 281.379,47.004 283.064 M355.446 286.455 C 356.535 287.437,357.512 288.157,357.618 288.054 C 357.815 287.862,356.760 286.951,354.653 285.491 C 354.000 285.039,354.356 285.472,355.446 286.455 M41.180 287.732 C 40.415 288.654,40.961 288.828,41.780 287.923 C 42.175 287.486,42.315 287.129,42.090 287.129 C 41.865 287.129,41.456 287.400,41.180 287.732 M38.812 289.703 C 38.537 290.034,38.494 290.297,38.715 290.297 C 38.933 290.297,39.333 290.030,39.604 289.703 C 39.879 289.372,39.922 289.109,39.701 289.109 C 39.483 289.109,39.083 289.376,38.812 289.703 M34.352 293.478 C 32.449 295.010,30.891 296.358,30.891 296.474 C 30.891 296.663,36.175 292.533,37.610 291.223 C 39.178 289.790,37.437 290.995,34.352 293.478 M362.178 292.033 C 363.050 292.804,363.941 293.441,364.158 293.449 C 364.621 293.464,362.546 291.670,361.386 291.052 C 360.950 290.820,361.307 291.262,362.178 292.033 M192.489 292.705 C 191.517 293.559,190.582 294.257,190.410 294.257 C 190.239 294.257,190.099 294.448,190.099 294.680 C 190.099 294.913,190.589 294.744,191.188 294.305 C 193.381 292.696,194.649 291.551,194.454 291.355 C 194.345 291.244,193.460 291.852,192.489 292.705 M204.356 291.331 C 204.356 291.796,209.687 296.196,210.619 296.499 C 210.986 296.619,210.837 296.387,210.286 295.982 C 209.735 295.578,208.869 294.891,208.360 294.455 C 207.852 294.020,207.225 293.485,206.968 293.267 C 206.710 293.050,206.017 292.439,205.428 291.911 C 204.838 291.383,204.356 291.122,204.356 291.331 M365.941 295.021 C 366.703 295.701,367.683 296.443,368.119 296.670 C 369.063 297.162,367.565 295.861,365.743 294.605 C 364.737 293.912,364.768 293.976,365.941 295.021 M188.340 296.052 C 187.917 296.372,187.750 296.634,187.967 296.634 C 188.185 296.634,188.709 296.372,189.132 296.052 C 189.555 295.732,189.723 295.471,189.505 295.471 C 189.287 295.471,188.763 295.732,188.340 296.052 M29.297 297.537 C 28.747 298.020,27.593 298.995,26.732 299.703 C 25.871 300.411,25.340 300.986,25.553 300.980 C 25.942 300.971,30.866 296.667,30.495 296.662 C 30.386 296.660,29.847 297.054,29.297 297.537 M374.029 301.749 C 374.800 302.600,375.446 302.825,375.446 302.242 C 375.446 302.059,374.959 301.688,374.364 301.417 C 373.285 300.925,373.284 300.926,374.029 301.749 M24.219 301.661 C 23.925 301.778,22.767 302.769,21.644 303.863 L 19.604 305.851 22.277 303.746 C 23.748 302.588,24.950 301.583,24.950 301.513 C 24.950 301.370,24.950 301.370,24.219 301.661 M375.842 302.904 C 375.842 303.242,378.340 305.347,379.406 305.907 C 379.733 306.079,379.378 305.711,378.618 305.090 C 377.858 304.469,376.922 303.649,376.539 303.267 C 376.155 302.886,375.842 302.723,375.842 302.904 M219.406 303.673 C 219.406 304.051,220.694 305.347,221.071 305.347 C 221.189 305.347,221.977 305.985,222.822 306.765 C 223.666 307.545,224.891 308.440,225.545 308.754 C 226.667 309.293,226.684 309.289,225.862 308.687 C 225.383 308.336,224.558 307.664,224.029 307.193 C 223.500 306.722,222.492 305.891,221.789 305.347 C 221.086 304.802,220.263 304.121,219.959 303.833 C 219.655 303.545,219.406 303.473,219.406 303.673 M177.277 305.137 C 176.691 305.680,175.846 306.320,175.399 306.560 C 174.952 306.799,174.677 307.086,174.788 307.197 C 175.047 307.457,175.797 307.009,177.417 305.627 C 178.130 305.019,178.630 304.438,178.528 304.336 C 178.426 304.234,177.863 304.595,177.277 305.137 M383.111 309.025 C 384.168 310.006,385.823 311.674,386.789 312.731 C 387.755 313.788,388.315 314.215,388.035 313.679 C 387.388 312.442,387.290 312.344,383.960 309.559 C 382.337 308.201,381.985 307.980,383.111 309.025 M172.623 308.778 C 172.126 309.380,172.164 309.393,173.069 308.922 C 174.397 308.232,174.497 308.119,173.778 308.119 C 173.442 308.119,172.922 308.415,172.623 308.778 M12.019 312.265 C 11.240 312.811,10.370 314.702,11.108 314.246 C 11.493 314.008,13.197 311.683,12.986 311.683 C 12.911 311.683,12.476 311.945,12.019 312.265 M234.257 315.799 C 235.347 316.808,236.594 317.819,237.030 318.046 C 237.906 318.502,236.313 317.061,233.861 315.180 C 232.600 314.212,232.680 314.338,234.257 315.799 M9.794 314.695 C 9.635 314.854,9.505 315.257,9.505 315.591 C 9.505 316.037,9.622 316.081,9.946 315.757 C 10.188 315.515,10.318 315.112,10.234 314.861 C 10.151 314.611,9.953 314.536,9.794 314.695 M388.911 315.199 C 388.911 315.390,389.164 315.757,389.474 316.014 C 389.936 316.397,389.998 316.335,389.824 315.666 C 389.615 314.870,388.911 314.510,388.911 315.199 M161.925 317.603 C 161.012 318.357,161.010 318.370,161.854 318.158 C 162.329 318.039,162.813 317.692,162.930 317.387 C 163.214 316.648,163.037 316.686,161.925 317.603 M159.553 319.471 C 159.056 320.073,159.094 320.086,160.000 319.615 C 161.328 318.925,161.428 318.812,160.709 318.812 C 160.372 318.812,159.852 319.108,159.553 319.471 M237.792 319.160 C 237.911 319.352,238.377 319.605,238.828 319.723 C 239.502 319.899,239.566 319.837,239.182 319.375 C 238.681 318.771,237.433 318.579,237.792 319.160 M241.980 322.085 C 241.980 322.172,242.738 322.846,243.663 323.581 C 244.589 324.317,245.095 324.606,244.788 324.223 C 244.209 323.502,241.980 321.805,241.980 322.085 M394.535 323.754 C 395.009 324.729,395.465 325.459,395.548 325.376 C 395.727 325.197,394.127 321.980,393.858 321.980 C 393.757 321.980,394.061 322.778,394.535 323.754 M154.938 323.465 C 153.990 324.391,153.975 324.437,154.832 323.768 C 156.523 322.452,156.603 322.376,156.323 322.376 C 156.174 322.376,155.551 322.866,154.938 323.465 M152.072 325.656 C 151.523 326.139,150.454 327.039,149.695 327.656 C 148.937 328.273,148.673 328.594,149.109 328.370 C 149.954 327.936,153.601 324.789,153.267 324.782 C 153.158 324.779,152.620 325.173,152.072 325.656 M245.545 324.915 C 245.545 325.094,251.389 329.963,252.178 330.440 C 253.581 331.289,252.287 330.078,249.109 327.568 C 247.149 326.019,245.545 324.825,245.545 324.915 M143.168 332.951 C 142.079 333.934,141.723 334.367,142.376 333.915 C 144.483 332.455,145.537 331.544,145.341 331.352 C 145.235 331.249,144.257 331.968,143.168 332.951 M253.516 331.384 C 253.700 331.869,264.851 340.992,265.252 340.986 C 265.413 340.983,264.921 340.493,264.159 339.897 C 263.396 339.300,260.657 337.053,258.070 334.904 C 255.484 332.754,253.435 331.170,253.516 331.384 M139.200 336.150 C 138.542 336.743,137.376 337.762,136.608 338.416 C 134.779 339.972,135.897 339.260,138.416 337.263 C 141.170 335.080,141.205 335.048,140.772 335.061 C 140.565 335.067,139.858 335.558,139.200 336.150 M128.317 345.001 C 127.554 345.676,126.218 346.849,125.347 347.608 C 124.475 348.368,124.130 348.749,124.579 348.455 C 125.748 347.691,130.297 344.068,130.297 343.902 C 130.297 343.495,129.552 343.908,128.317 345.001 M268.733 344.100 C 270.580 345.757,276.527 350.492,276.748 350.482 C 276.903 350.474,276.324 349.895,275.462 349.195 C 274.600 348.494,272.819 346.985,271.505 345.842 C 270.190 344.698,268.944 343.762,268.736 343.762 C 268.496 343.762,268.495 343.887,268.733 344.100 M113.960 356.627 C 113.361 357.154,112.871 357.688,112.871 357.812 C 112.871 358.225,114.781 356.794,115.004 356.214 C 115.287 355.477,115.251 355.491,113.960 356.627 M283.797 356.185 C 284.048 356.839,285.954 358.229,285.919 357.732 C 285.907 357.564,285.373 357.012,284.732 356.506 C 283.972 355.906,283.647 355.794,283.797 356.185 M111.022 359.134 C 106.437 363.072,105.781 363.961,109.901 360.651 C 112.649 358.443,112.642 358.450,112.441 358.249 C 112.342 358.150,111.703 358.548,111.022 359.134 M286.337 358.274 C 286.337 358.466,287.349 359.424,288.585 360.401 C 291.389 362.617,292.535 363.288,290.693 361.637 C 287.051 358.370,286.337 357.819,286.337 358.274 M98.316 369.412 C 97.389 370.225,96.231 371.209,95.741 371.598 C 94.874 372.287,94.885 372.289,96.159 371.676 C 96.878 371.331,97.566 370.790,97.687 370.474 C 97.808 370.159,98.110 369.895,98.359 369.889 C 98.608 369.882,99.132 369.436,99.523 368.898 C 100.473 367.593,100.303 367.666,98.316 369.412 M299.221 368.799 C 299.649 369.392,300.204 369.882,300.453 369.889 C 300.702 369.895,301.004 370.159,301.125 370.474 C 301.246 370.790,301.934 371.333,302.653 371.682 L 303.960 372.316 302.970 371.505 C 302.426 371.059,301.718 370.471,301.397 370.198 C 301.076 369.926,300.280 369.257,299.627 368.713 L 298.441 367.723 299.221 368.799 M7.556 372.214 C 7.519 372.839,9.555 375.821,10.027 375.833 C 10.328 375.841,8.869 373.511,8.296 373.069 C 8.155 372.960,7.938 372.604,7.813 372.277 C 7.650 371.848,7.579 371.830,7.556 372.214 M93.491 373.236 C 93.108 373.698,93.171 373.761,93.845 373.584 C 94.836 373.325,95.324 372.673,94.527 372.673 C 94.214 372.673,93.748 372.927,93.491 373.236 M303.931 373.022 C 304.049 373.213,304.515 373.466,304.967 373.584 C 305.641 373.761,305.704 373.698,305.321 373.236 C 304.820 372.633,303.571 372.440,303.931 373.022 M392.079 373.193 C 392.079 373.478,391.766 374.058,391.383 374.480 C 390.999 374.902,390.068 376.050,389.314 377.030 C 388.559 378.010,387.758 378.943,387.535 379.103 C 387.272 379.291,387.295 379.396,387.601 379.400 C 387.860 379.403,388.856 378.381,389.814 377.129 C 392.309 373.865,393.033 372.673,392.521 372.673 C 392.278 372.673,392.079 372.907,392.079 373.193 M308.119 375.946 C 308.119 376.034,308.876 376.707,309.802 377.443 C 310.728 378.178,311.234 378.467,310.926 378.085 C 310.347 377.364,308.119 375.667,308.119 375.946 M11.056 377.315 C 11.911 378.579,12.611 379.217,12.850 378.951 C 12.919 378.874,12.349 378.188,11.584 377.426 L 10.193 376.040 11.056 377.315 M88.799 377.327 C 87.852 378.252,87.836 378.298,88.694 377.630 C 90.384 376.313,90.465 376.238,90.184 376.238 C 90.035 376.238,89.412 376.728,88.799 377.327 M83.695 381.312 C 80.273 384.113,79.409 384.906,80.396 384.342 C 81.199 383.883,87.129 378.981,87.129 378.776 C 87.129 378.507,87.048 378.567,83.695 381.312 M312.871 379.801 C 316.725 383.321,317.628 384.075,318.290 384.325 C 319.263 384.693,318.716 384.195,314.653 381.015 C 312.911 379.651,312.109 379.105,312.871 379.801 M16.450 382.739 C 16.795 383.265,17.378 383.811,17.746 383.952 C 18.138 384.103,17.934 383.708,17.252 382.996 C 15.852 381.534,15.610 381.457,16.450 382.739 M18.614 384.465 C 18.614 384.980,24.078 388.727,24.384 388.421 C 24.511 388.295,24.244 388.074,23.792 387.930 C 23.340 387.787,22.970 387.503,22.970 387.300 C 22.970 387.097,22.778 386.931,22.542 386.931 C 22.306 386.931,21.326 386.285,20.364 385.497 C 19.401 384.708,18.614 384.244,18.614 384.465 M380.396 385.755 C 379.307 386.618,378.238 387.467,378.020 387.642 C 377.802 387.817,376.822 388.459,375.842 389.069 C 374.861 389.679,374.400 390.066,374.816 389.928 C 375.685 389.642,380.216 386.620,381.980 385.152 C 383.932 383.527,382.540 384.057,380.396 385.755 M323.960 388.534 C 325.334 389.467,326.116 389.738,325.149 388.946 C 324.604 388.501,323.980 388.135,323.762 388.134 C 323.545 388.132,323.634 388.312,323.960 388.534 M69.703 390.693 C 69.158 391.004,68.891 391.259,69.109 391.259 C 69.327 391.259,69.950 391.004,70.495 390.693 C 71.040 390.382,71.307 390.127,71.089 390.127 C 70.871 390.127,70.248 390.382,69.703 390.693 M49.010 395.131 C 49.500 395.225,50.302 395.225,50.792 395.131 C 51.282 395.037,50.881 394.959,49.901 394.959 C 48.921 394.959,48.520 395.037,49.010 395.131 M347.232 395.924 C 347.725 396.018,348.438 396.015,348.816 395.916 C 349.195 395.817,348.792 395.739,347.921 395.743 C 347.050 395.748,346.740 395.829,347.232 395.924 M351.985 395.924 C 352.477 396.018,353.190 396.015,353.569 395.916 C 353.948 395.817,353.545 395.739,352.673 395.743 C 351.802 395.748,351.492 395.829,351.985 395.924 " stroke="none" fill="#c6c6c6" fill-rule="evenodd"></path><path id="path4" d="M150.099 25.149 C 149.819 25.486,149.679 25.851,149.788 25.960 C 149.897 26.069,150.215 25.882,150.495 25.545 C 150.775 25.207,150.915 24.842,150.806 24.733 C 150.697 24.624,150.379 24.811,150.099 25.149 M118.548 50.784 C 117.864 51.270,117.080 52.027,116.806 52.467 C 116.185 53.465,117.457 52.568,118.339 51.386 C 118.624 51.005,119.114 50.693,119.428 50.693 C 119.743 50.693,120.000 50.515,120.000 50.297 C 120.000 49.763,119.971 49.773,118.548 50.784 M360.396 116.588 C 360.396 116.672,360.886 117.056,361.485 117.442 L 362.574 118.142 361.820 117.289 C 361.152 116.534,360.396 116.162,360.396 116.588 M14.034 136.733 L 12.871 138.020 14.158 136.857 C 14.866 136.217,15.446 135.638,15.446 135.569 C 15.446 135.264,15.119 135.533,14.034 136.733 M238.231 146.153 C 238.945 146.942,239.606 147.174,239.601 146.634 C 239.599 146.470,239.132 146.120,238.562 145.856 C 237.550 145.386,237.543 145.393,238.231 146.153 M95.646 198.413 C 95.250 198.850,95.111 199.208,95.336 199.208 C 95.834 199.208,96.822 198.076,96.556 197.810 C 96.451 197.705,96.041 197.976,95.646 198.413 M302.574 198.614 C 302.845 198.941,303.246 199.208,303.463 199.208 C 303.684 199.208,303.641 198.945,303.366 198.614 C 303.095 198.287,302.695 198.020,302.477 198.020 C 302.256 198.020,302.299 198.282,302.574 198.614 M12.316 205.644 C 12.410 205.698,13.287 206.455,14.264 207.327 L 16.040 208.911 14.474 207.228 C 13.613 206.302,12.737 205.545,12.527 205.545 C 12.317 205.545,12.222 205.589,12.316 205.644 M385.330 208.198 L 383.564 210.060 385.347 208.539 C 387.937 206.327,387.928 206.337,387.488 206.337 C 387.272 206.337,386.301 207.174,385.330 208.198 M294.227 236.181 C 295.266 237.313,295.446 237.416,295.446 236.877 C 295.446 236.684,294.955 236.213,294.356 235.830 L 293.267 235.133 294.227 236.181 M387.723 313.170 C 387.723 313.388,387.990 313.788,388.317 314.059 C 388.648 314.334,388.911 314.377,388.911 314.156 C 388.911 313.939,388.644 313.538,388.317 313.267 C 387.985 312.992,387.723 312.949,387.723 313.170 M236.326 318.049 C 236.810 318.553,237.305 318.866,237.427 318.745 C 237.549 318.623,237.153 318.210,236.547 317.828 L 235.446 317.132 236.326 318.049 M12.316 379.109 C 12.410 379.163,13.287 379.921,14.264 380.792 L 16.040 382.376 14.474 380.693 C 13.613 379.767,12.737 379.010,12.527 379.010 C 12.317 379.010,12.222 379.054,12.316 379.109 M385.554 381.377 C 382.938 384.032,383.404 384.137,386.096 381.499 C 387.271 380.348,388.066 379.406,387.863 379.406 C 387.661 379.406,386.621 380.293,385.554 381.377 " stroke="none" fill="#ffffff" fill-rule="evenodd"></path></g></svg>